<svg width="1200" height="720" viewBox="0 0 1200 720" fill="none" xmlns="http://www.w3.org/2000/svg">
  <rect width="1200" height="720" fill="#FFF7E8"/>
  <rect y="450" width="1200" height="270" fill="#35424B"/>
  <rect x="120" y="540" width="200" height="12" rx="6" fill="#FFE8A6"/>
  <rect x="430" y="540" width="200" height="12" rx="6" fill="#FFE8A6"/>
  <rect x="740" y="540" width="200" height="12" rx="6" fill="#FFE8A6"/>
  <rect x="240" y="220" width="320" height="180" rx="20" fill="#FF8A00" stroke="white" stroke-width="18"/>
  <text x="292" y="285" fill="white" font-family="Segoe UI, sans-serif" font-size="34" font-weight="700">DIVERSION</text>
  <text x="315" y="330" fill="#FFF2D8" font-family="Segoe UI, sans-serif" font-size="24" font-weight="600">Work Ahead</text>
  <path d="M440 352H500" stroke="white" stroke-width="16" stroke-linecap="round"/>
  <path d="M485 324L515 352L485 380" stroke="white" stroke-width="16" stroke-linecap="round" stroke-linejoin="round"/>
  <rect x="315" y="396" width="14" height="110" rx="7" fill="#E9F2F5"/>
  <rect x="470" y="396" width="14" height="110" rx="7" fill="#E9F2F5"/>
  <rect x="760" y="365" width="120" height="24" rx="12" fill="#F97316"/>
  <rect x="700" y="395" width="240" height="26" rx="13" fill="#FDBA74"/>
  <rect x="650" y="425" width="340" height="28" rx="14" fill="#FB923C"/>
  <path d="M780 200L925 90L980 170L840 275Z" fill="#F4B000"/>
  <rect x="840" y="230" width="18" height="170" rx="9" fill="#B89254"/>
  <circle cx="1040" cy="145" r="55" fill="#FFD88A"/>
  <path d="M0 430C145 395 242 365 398 380C554 395 674 468 859 458C1015 450 1094 400 1200 342V450H0Z" fill="#E9D5A1"/>
</svg>
